<?xml version="1.0" encoding="utf-8"?>
<!-- Generator: Adobe Illustrator 19.0.0, SVG Export Plug-In . SVG Version: 6.00 Build 0)  -->
<svg version="1.1" id="Layer_1" xmlns="http://www.w3.org/2000/svg" xmlns:xlink="http://www.w3.org/1999/xlink" x="0px" y="0px"
	 viewBox="0 0 47.1 33.3" style="enable-background:new 0 0 47.1 33.3;" xml:space="preserve">
<style type="text/css">
	.st0{fill:#010101;}
</style>
<g id="XMLID_1_">
	<path id="XMLID_59_" class="st0" d="M10.1,3.1L10.1,3.1c0,1.7,1.4,3.1,3.1,3.1H44c1.7,0,3.1-1.4,3.1-3.1l0,0C47.1,1.4,45.7,0,44,0
		H13.2C11.5,0,10.1,1.4,10.1,3.1z"/>
	<path id="XMLID_46_" class="st0" d="M6.1,1.1c0.5,0.5,0.5,1.2,0,1.7l-2,2c-0.5,0.5-1.2,0.5-1.7,0l-2-2c-0.5-0.5-0.5-1.2,0-1.7"/>
	<path id="XMLID_20_" class="st0" d="M45.1,14.1h-28c-1.1,0-2-0.9-2-2v0c0-1.1,0.9-2,2-2h28c1.1,0,2,0.9,2,2v0
		C47.1,13.2,46.2,14.1,45.1,14.1z"/>
	<path id="XMLID_19_" class="st0" d="M10.1,22.3L10.1,22.3c0,1.7,1.4,3.1,3.1,3.1H44c1.7,0,3.1-1.4,3.1-3.1l0,0
		c0-1.7-1.4-3.1-3.1-3.1H13.2C11.5,19.2,10.1,20.6,10.1,22.3z"/>
	<path id="XMLID_18_" class="st0" d="M6.1,20.2c0.5,0.5,0.5,1.2,0,1.7l-2,2c-0.5,0.5-1.2,0.5-1.7,0l-2-2c-0.5-0.5-0.5-1.2,0-1.7"/>
	<path id="XMLID_16_" class="st0" d="M45.1,33.3h-28c-1.1,0-2-0.9-2-2v0c0-1.1,0.9-2,2-2h28c1.1,0,2,0.9,2,2v0
		C47.1,32.4,46.2,33.3,45.1,33.3z"/>
</g>
</svg>
